<?xml version="1.0" standalone="no"?>
<!DOCTYPE svg PUBLIC "-//W3C//DTD SVG 20010904//EN"
 "http://www.w3.org/TR/2001/REC-SVG-20010904/DTD/svg10.dtd">
<svg version="1.0" xmlns="http://www.w3.org/2000/svg"
 width="270.000000pt" height="270.000000pt" viewBox="0 0 270.000000 270.000000"
 preserveAspectRatio="xMidYMid meet">
<metadata>
Created by potrace 1.11, written by Peter Selinger 2001-2013
</metadata>
<g transform="translate(0.000000,270.000000) scale(0.100000,-0.100000)"
fill="#000000" stroke="none">
<path d="M27 2123 c-11 -11 -8 -1121 3 -1128 5 -3 157 -6 338 -6 l328 1 -1
-261 c0 -200 3 -266 13 -280 13 -18 48 -19 991 -19 746 0 980 3 989 12 18 18
17 1101 -1 1117 -9 7 -118 11 -338 11 l-325 1 1 257 c0 141 -1 267 -3 280 l-4
22 -992 0 c-546 0 -996 -3 -999 -7z m2553 -1123 l0 -450 -880 0 c-484 0 -880
3 -881 8 -6 42 -3 410 4 419 7 10 145 12 599 12 325 0 593 3 596 6 3 3 6 107
6 230 l1 225 277 0 278 0 0 -450z"/>
</g>
</svg>
